# Blender 4.2.0
# www.blender.org
o Plane.031
v -0.636926 0.000000 -0.636926
v -0.510290 0.137269 -0.510290
v -0.636926 0.137269 -0.636926
v -0.447058 0.152571 -0.447058
v -0.636926 0.000000 0.000000
v -0.636926 0.137269 0.000000
v -0.510290 0.137269 0.000000
v -0.447058 0.152571 0.000000
v 0.000000 0.000000 -0.636926
v 0.000000 0.137269 -0.636926
v 0.000000 0.137269 -0.510290
v 0.000000 0.152571 -0.447058
v 0.000000 0.152571 0.000000
v 0.000000 0.000000 0.000000
v 0.000000 0.000000 -0.884141
v -0.636926 0.000000 -0.884141
v -0.884141 0.000000 -0.636926
v -0.884141 0.000000 0.000000
v 0.636926 0.000000 -0.636926
v 0.510290 0.137269 -0.510290
v 0.636926 0.137269 -0.636926
v 0.447058 0.152571 -0.447058
v 0.636926 0.000000 0.000000
v 0.636926 0.137269 0.000000
v 0.510290 0.137269 0.000000
v 0.447058 0.152571 0.000000
v 0.636926 0.000000 -0.884141
v 0.884141 0.000000 -0.636926
v 0.884141 0.000000 0.000000
v -0.636926 0.000000 0.636926
v -0.510290 0.137269 0.510290
v -0.636926 0.137269 0.636926
v -0.447058 0.152571 0.447058
v 0.000000 0.000000 0.636926
v 0.000000 0.137269 0.636926
v 0.000000 0.137269 0.510290
v 0.000000 0.152571 0.447058
v 0.000000 0.000000 0.884141
v -0.636926 0.000000 0.884141
v -0.884141 0.000000 0.636926
v 0.636926 0.000000 0.636926
v 0.510290 0.137269 0.510290
v 0.636926 0.137269 0.636926
v 0.447058 0.152571 0.447058
v 0.636926 0.000000 0.884141
v 0.884141 0.000000 0.636926
vn -0.0000 1.0000 -0.0000
vn -0.0000 0.9719 -0.2352
vn -0.2352 0.9719 -0.0000
vn -0.0000 -1.0000 -0.0000
vn -0.0000 0.8743 -0.4854
vn 1.0000 -0.0000 -0.0000
vn -0.0000 -0.0000 1.0000
vn -0.4854 0.8743 -0.0000
vn -0.4367 0.7865 -0.4367
vn 0.2352 0.9719 -0.0000
vn 0.4854 0.8743 -0.0000
vn 0.4367 0.7865 -0.4367
vn -0.0000 0.9719 0.2352
vn -0.0000 0.8743 0.4854
vn -0.4367 0.7865 0.4367
vn 0.4367 0.7865 0.4367
vt 0.013125 0.986510
vt 0.002543 0.982019
s 0
f 7/1/1 2/1/1 3/1/1 6/1/1
f 11/2/2 2/2/2 4/2/2 12/2/2
f 2/2/3 7/2/3 8/2/3 4/2/3
f 8/2/1 13/2/1 12/2/1 4/2/1
f 2/1/1 11/1/1 10/1/1 3/1/1
f 5/1/4 1/1/4 9/1/4 14/1/4
f 1/1/4 16/1/4 15/1/4 9/1/4
f 10/1/5 15/1/5 16/1/5 3/1/5
f 9/1/6 15/1/6 10/1/6
f 5/1/4 18/1/4 17/1/4 1/1/4
f 6/1/7 18/1/7 5/1/7
f 3/1/8 17/1/8 18/1/8 6/1/8
f 3/1/9 16/1/9 17/1/9
f 17/1/4 16/1/4 1/1/4
f 25/1/1 24/1/1 21/1/1 20/1/1
f 11/2/2 12/2/2 22/2/2 20/2/2
f 20/2/10 22/2/10 26/2/10 25/2/10
f 26/2/1 22/2/1 12/2/1 13/2/1
f 20/1/1 21/1/1 10/1/1 11/1/1
f 23/1/4 14/1/4 9/1/4 19/1/4
f 19/1/4 9/1/4 15/1/4 27/1/4
f 10/1/5 21/1/5 27/1/5 15/1/5
f 23/1/4 19/1/4 28/1/4 29/1/4
f 24/1/7 23/1/7 29/1/7
f 21/1/11 24/1/11 29/1/11 28/1/11
f 21/1/12 28/1/12 27/1/12
f 28/1/4 19/1/4 27/1/4
f 7/1/1 6/1/1 32/1/1 31/1/1
f 36/2/13 37/2/13 33/2/13 31/2/13
f 31/2/3 33/2/3 8/2/3 7/2/3
f 8/2/1 33/2/1 37/2/1 13/2/1
f 31/1/1 32/1/1 35/1/1 36/1/1
f 5/1/4 14/1/4 34/1/4 30/1/4
f 30/1/4 34/1/4 38/1/4 39/1/4
f 35/1/14 32/1/14 39/1/14 38/1/14
f 34/1/6 35/1/6 38/1/6
f 5/1/4 30/1/4 40/1/4 18/1/4
f 32/1/8 6/1/8 18/1/8 40/1/8
f 32/1/15 40/1/15 39/1/15
f 40/1/4 30/1/4 39/1/4
f 25/1/1 42/1/1 43/1/1 24/1/1
f 36/2/13 42/2/13 44/2/13 37/2/13
f 42/2/10 25/2/10 26/2/10 44/2/10
f 26/2/1 13/2/1 37/2/1 44/2/1
f 42/1/1 36/1/1 35/1/1 43/1/1
f 23/1/4 41/1/4 34/1/4 14/1/4
f 41/1/4 45/1/4 38/1/4 34/1/4
f 35/1/14 38/1/14 45/1/14 43/1/14
f 23/1/4 29/1/4 46/1/4 41/1/4
f 43/1/11 46/1/11 29/1/11 24/1/11
f 43/1/16 45/1/16 46/1/16
f 46/1/4 45/1/4 41/1/4
